<?xml version="1.0" standalone="no"?><!DOCTYPE svg PUBLIC "-//W3C//DTD SVG 1.1//EN" "http://www.w3.org/Graphics/SVG/1.1/DTD/svg11.dtd"><svg t="1581609389034" class="icon" viewBox="0 0 1996 1024" version="1.1" xmlns="http://www.w3.org/2000/svg" p-id="6926" xmlns:xlink="http://www.w3.org/1999/xlink" width="124.75" height="64"><defs><style type="text/css"></style></defs><path d="M654.592 934.0928c-25.0368 22.016-66.4064 40.6016-94.3104 51.8144l-457.0624-1.6896A104.1408 104.1408 0 0 1 1.6384 880.64L0 789.0432c18.0736-4.7616 36.096-9.5232 53.1968-17.92l-0.768 111.4624c-0.4096 26.9824 25.3952 50.7904 52.6336 51.2512l549.5296 0.256z m143.2576 0.4608l444.3136-2.56c-18.7392 16.4352-36.5056 36.5056-51.712 52.0192l-549.4784-0.256 20.8384-51.5584 39.0144 1.1776c8.448 16.896 23.1424 28.3648 38.5536 28.16 19.0464-1.2288 38.7584-14.1312 58.4704-26.9824zM54.5792 747.776c-19.968-2.3552-35.3792-2.1504-51.7632-5.4784L3.4816 116.9408C0.7168 64 43.52 22.016 96 15.7696c40.2432 19.968 96.6144 28.1088 127.4368 27.648A215.1424 215.1424 0 0 1 173.056 14.4896L1564.5184 16.896c2.9184 10.752 9.728 35.7888 25.3952 50.7904L105.984 66.816c-27.2384-0.512-51.2512 25.088-51.712 52.0192l0.3072 628.9408z m1881.3952 168.0384c-4.096 27.904-10.0352 48.64-9.728 63.9488-7.2704 1.8944-18.0736 4.7616-26.2656 3.072l-647.8336 0.1536c91.904-32 185.088-45.1584 245.76-49.664l400.2816 0.1536c15.36-0.256 28.8768-7.68 37.7856-17.664z m18.944-415.3856s11.8784 58.2144 41.0112 65.8432l0.1536 314.4704c-1.3824 23.3472-10.9568 45.056-21.504 63.232-1.536-34.1504-14.848-68.9664-29.8496-95.6928L1943.552 116.0704c0.4608-26.9824-25.3952-50.8416-52.5824-51.3024L1689.6 64.3584c27.904-11.2128 58.4704-26.9824 74.5472-38.912-74.1376 11.9808-147.8656-3.072-185.1904-12.288l313.8048 1.28a104.1408 104.1408 0 0 1 101.5808 103.4752L1996.8 512.3072c-24.576-4.9664-41.9328-11.8784-41.9328-11.8784z m-1125.0688 336.384h-95.3344l-14.336-51.6096 93.184 2.1504c17.92 0 27.2384-10.752 27.2384-32.256v-494.592H368.9472v578.4576H317.3376V210.3296h574.8736v556.2368c0 46.592-20.7872 70.2464-62.3616 70.2464z m-408.576-493.8752h367.7184v48.0256H421.2736v-48.0256z m40.1408 125.44h287.4368v230.8096H461.4144V468.3776z m237.2608 184.9344v-138.3424H511.5904v138.3424h187.0848z m460.9024-382.7712h-115.4048v-44.4416h245.8624a320.6656 320.6656 0 0 0-20.7872-41.5744l55.1936-8.6016c7.168 15.0528 15.0528 31.5392 22.2208 50.176h252.3136v44.4416h-116.8384l-27.9552 56.6272h178.4832v45.1584H1010.4832V327.168h172.032l-22.9376-56.6272z m76.6976 56.6272h164.1472l27.9552-56.6272h-215.04l22.9376 56.6272z m-144.0768 87.4496h458.752v212.1728h-458.752V414.6176z m408.576 172.032v-47.3088h-358.4v47.3088h358.4z m-358.4-85.2992h358.4v-45.8752h-358.4v45.8752z m-78.848 159.1296l50.176 10.0352c-17.2032 57.344-40.1408 106.8032-70.2464 148.3776l-44.4416-27.9552a403.7632 403.7632 0 0 0 64.512-130.4576z m356.2496 167.7312h-174.8992c-48.7424 0-72.3968-22.2208-72.3968-66.6624v-94.6176h53.0432v83.8656c0 20.0704 11.4688 30.8224 34.4064 30.8224h150.528c15.7696 0 26.5216-2.8672 32.256-8.6016 8.6016-7.168 14.336-29.3888 17.2032-65.2288l48.7424 15.7696c-5.0176 49.4592-15.0528 79.5648-29.3888 91.0336-12.9024 8.6016-32.256 13.6192-59.4944 13.6192z m-90.3168-187.8016c30.1056 30.1056 53.76 57.344 69.5296 80.9984l-43.008 30.1056a557.3632 557.3632 0 0 0-70.2464-83.8656l43.7248-27.2384z m225.0752 13.6192c40.1408 48.0256 71.68 89.6 93.184 125.44l-43.008 30.1056c-22.9376-39.424-53.0432-82.432-91.7504-129.7408l41.5744-25.8048z" fill="#13C2C2" p-id="6927"></path></svg>